<?xml version="1.0" standalone="no"?>
<!DOCTYPE svg PUBLIC "-//W3C//DTD SVG 20010904//EN"
 "http://www.w3.org/TR/2001/REC-SVG-20010904/DTD/svg10.dtd">
<svg version="1.0" xmlns="http://www.w3.org/2000/svg"
 width="260.000000pt" height="260.000000pt" viewBox="0 0 260.000000 260.000000"
 preserveAspectRatio="xMidYMid meet">
<metadata>
Created by potrace 1.11, written by Peter Selinger 2001-2013
</metadata>
<g transform="translate(0.000000,260.000000) scale(0.100000,-0.100000)"
fill="#000000" stroke="none">
<path d="M508 2120 c-152 -32 -282 -108 -346 -203 -46 -68 -64 -125 -67 -212
-3 -97 16 -162 71 -242 72 -104 215 -193 431 -267 247 -85 313 -136 313 -241
0 -51 -31 -100 -80 -129 -40 -24 -156 -31 -230 -15 -104 23 -166 101 -169 212
l-1 27 -194 0 -194 0 4 -56 c6 -81 45 -186 94 -250 74 -98 191 -167 353 -209
126 -33 329 -31 457 5 226 63 342 202 343 410 0 147 -41 241 -148 338 -67 61
-216 139 -355 185 -134 45 -174 62 -231 98 -148 94 -87 258 104 276 134 12
247 -68 247 -175 l0 -27 182 1 c101 1 188 2 195 3 16 1 7 81 -18 158 -22 68
-84 155 -145 204 -57 46 -168 95 -256 113 -101 21 -251 19 -360 -4z"/>
<path d="M1340 1325 l0 -795 383 0 c323 1 395 4 467 19 248 51 375 189 384
415 4 95 -6 154 -36 213 -28 55 -95 118 -154 145 l-45 20 43 28 c112 73 162
170 160 313 -3 223 -131 360 -385 416 -75 16 -135 19 -452 20 l-365 2 0 -796z
m725 464 c62 -31 90 -80 87 -156 -3 -133 -74 -173 -308 -173 l-114 0 0 181 0
182 143 -5 c127 -4 149 -7 192 -29z m34 -612 c54 -27 81 -76 86 -149 3 -55
-13 -108 -42 -140 -40 -44 -71 -51 -245 -56 l-168 -4 0 185 c0 165 2 186 17
189 9 2 82 2 162 1 129 -3 151 -5 190 -26z"/>
</g>
</svg>
