<?xml version="1.0" standalone="no"?>
<!DOCTYPE svg PUBLIC "-//W3C//DTD SVG 20010904//EN"
 "http://www.w3.org/TR/2001/REC-SVG-20010904/DTD/svg10.dtd">
<svg version="1.0" xmlns="http://www.w3.org/2000/svg"
 width="1734.000000pt" height="1734.000000pt" viewBox="0 0 1734.000000 1734.000000"
 preserveAspectRatio="xMidYMid meet">
<metadata>
Created by potrace 1.11, written by Peter Selinger 2001-2013
</metadata>
<g transform="translate(0.000000,1734.000000) scale(0.100000,-0.100000)"
fill="#000000" stroke="none">
<path d="M0 8670 l0 -8670 8670 0 8670 0 0 6690 c0 5940 -2 6690 -15 6690 -13
0 -15 227 -15 1980 l0 1980 -8655 0 -8655 0 0 -8670z m7175 2110 c268 -30 477
-98 661 -216 81 -52 207 -176 260 -255 25 -38 49 -71 55 -74 5 -4 9 84 9 224
l0 231 305 0 305 0 0 -675 0 -675 -341 2 -340 3 -44 127 c-117 344 -305 546
-605 650 -202 70 -547 75 -770 12 -230 -65 -464 -238 -603 -445 -134 -201
-228 -479 -256 -758 -14 -132 -14 -444 -1 -585 64 -667 418 -1114 960 -1210
287 -51 579 -18 805 93 220 108 369 274 464 518 21 54 61 209 61 237 0 14 36
16 371 16 l372 0 -7 -62 c-24 -235 -154 -569 -300 -772 -318 -441 -828 -666
-1511 -666 -632 0 -1129 187 -1491 562 -132 136 -208 243 -294 413 -170 336
-237 626 -247 1076 -8 337 17 554 92 817 188 658 651 1145 1270 1336 99 30
276 66 375 76 114 11 344 11 445 0z m4520 -20 c441 -76 764 -259 990 -559 l48
-64 -30 -26 c-17 -14 -147 -127 -288 -250 l-257 -223 -31 38 c-138 168 -336
292 -562 350 -103 27 -123 29 -305 29 -180 0 -200 -2 -260 -24 -161 -58 -279
-181 -320 -331 -20 -74 -13 -186 15 -248 49 -107 183 -204 397 -289 115 -46
177 -65 448 -139 225 -62 339 -98 472 -148 478 -182 735 -448 809 -836 19 -98
17 -347 -4 -453 -51 -253 -174 -478 -362 -656 -201 -190 -457 -319 -766 -385
-452 -96 -1049 -40 -1425 134 -246 114 -470 298 -609 500 -42 61 -47 72 -34
85 8 8 145 127 304 264 l290 250 49 -57 c264 -304 555 -460 923 -494 494 -45
804 172 754 527 -34 243 -161 329 -725 491 -548 157 -813 273 -1050 458 -188
147 -314 337 -367 556 -46 192 -27 470 47 666 176 468 608 768 1224 849 151
20 468 13 625 -15z m-9840 -350 l0 -275 -228 -3 -228 -2 4 -1133 3 -1132 27
-119 c84 -374 246 -548 574 -617 145 -30 376 -29 533 4 170 36 253 79 362 187
72 73 93 102 132 181 43 91 83 224 107 359 8 45 13 398 16 1168 l4 1102 -226
0 -225 0 0 280 0 280 815 0 815 0 0 -280 0 -280 -207 -2 -208 -3 -6 -1125 c-3
-619 -9 -1141 -13 -1160 -4 -19 -16 -82 -27 -140 -61 -316 -180 -557 -377
-761 -281 -293 -696 -439 -1245 -439 -417 0 -745 84 -1007 258 -305 202 -486
495 -576 932 l-28 135 -5 1150 -6 1150 -207 3 -208 2 0 280 0 280 818 -2 817
-3 0 -275z m14005 251 c243 -32 402 -76 553 -152 254 -128 417 -329 478 -590
18 -76 23 -126 23 -259 1 -173 -9 -243 -55 -367 -86 -233 -309 -438 -581 -534
-38 -13 -68 -29 -68 -35 0 -7 23 -15 53 -19 28 -4 99 -22 157 -41 368 -122
594 -373 670 -745 19 -88 21 -127 17 -254 -9 -300 -94 -497 -299 -697 -237
-230 -586 -360 -1070 -398 -68 -5 -513 -10 -990 -10 l-868 0 0 2066 0 2065
908 -3 c872 -4 913 -5 1072 -27z"/>
<path d="M14780 9485 l0 -445 393 0 c445 0 481 4 614 70 164 81 245 229 229
420 -11 138 -88 252 -209 314 -138 69 -275 86 -724 86 l-303 0 0 -445z"/>
<path d="M14780 7799 l0 -470 508 3 507 3 75 28 c102 38 174 83 227 142 86 97
119 195 111 336 -10 187 -117 310 -332 378 -138 44 -231 51 -683 51 l-413 0 0
-471z"/>
</g>
</svg>
