<?xml version="1.0" standalone="no"?>
<!DOCTYPE svg PUBLIC "-//W3C//DTD SVG 20010904//EN"
 "http://www.w3.org/TR/2001/REC-SVG-20010904/DTD/svg10.dtd">
<svg version="1.0" xmlns="http://www.w3.org/2000/svg"
 width="260.000000pt" height="260.000000pt" viewBox="0 0 260.000000 260.000000"
 preserveAspectRatio="xMidYMid meet">
<metadata>
Created by potrace 1.11, written by Peter Selinger 2001-2013
</metadata>
<g transform="translate(0.000000,260.000000) scale(0.100000,-0.100000)"
fill="#000000" stroke="none">
<path d="M525 2015 c-235 -46 -379 -180 -390 -364 -12 -213 130 -355 475 -477
178 -62 231 -97 250 -163 34 -121 -86 -203 -252 -172 -103 19 -155 71 -166
168 -4 40 -7 43 -36 44 -39 1 -252 1 -289 0 l-28 -1 6 -57 c21 -195 154 -332
382 -395 103 -28 315 -30 413 -4 193 52 303 170 317 340 10 134 -24 225 -121
321 -69 69 -168 123 -334 180 -123 43 -202 79 -232 107 -90 84 -29 204 115
223 119 16 225 -52 227 -146 1 -22 6 -29 22 -30 25 -1 295 -1 314 0 11 1 13
14 8 56 -4 49 -13 77 -50 155 -22 48 -120 137 -181 165 -132 60 -302 79 -450
50z"/>
<path d="M1444 1295 l0 -715 350 1 c381 1 442 8 546 57 78 37 142 100 176 175
36 80 46 226 20 305 -28 83 -95 154 -171 179 l-30 10 30 15 c71 37 134 124
150 206 11 51 6 155 -9 206 -29 99 -112 182 -225 226 -103 39 -216 50 -537 50
l-300 0 0 -715z m650 415 c53 -25 77 -69 78 -139 0 -116 -59 -152 -261 -154
l-116 -2 0 150 c-1 83 1 155 3 162 3 8 38 11 128 8 101 -3 132 -7 168 -25z
m-11 -534 c74 -14 117 -73 118 -161 1 -64 -23 -110 -73 -140 -29 -18 -51 -20
-183 -20 l-150 0 0 160 0 160 24 5 c34 7 221 4 264 -4z"/>
</g>
</svg>
